<?xml version="1.0" encoding="utf-8"?>
<!-- Generator: Adobe Illustrator 28.0.0, SVG Export Plug-In . SVG Version: 6.00 Build 0)  -->
<svg version="1.1" id="Layer_1" xmlns="http://www.w3.org/2000/svg" xmlns:xlink="http://www.w3.org/1999/xlink" x="0px" y="0px"
	 viewBox="0 0 24 24" style="enable-background:new 0 0 24 24;" xml:space="preserve">
<style type="text/css">
	.st0{fill:#C4C7C5;}
</style>
<path class="st0" d="M8.4,11.7c-0.8,0-1.5,0.7-1.5,1.5c0,0.8,0.7,1.5,1.5,1.5c0.8,0,1.5-0.7,1.5-1.5C9.9,12.4,9.2,11.7,8.4,11.7z
	 M15.6,11.7c-0.8,0-1.5,0.7-1.5,1.5c0,0.8,0.7,1.5,1.5,1.5c0.8,0,1.5-0.7,1.5-1.5C17.1,12.4,16.4,11.7,15.6,11.7z M12,0
	C5.4,0,0,5.4,0,12s5.4,12,12,12s12-5.4,12-12S18.6,0,12,0z M12,21.6c-5.3,0-9.6-4.3-9.6-9.6c0-0.3,0-0.7,0.1-1
	c2.8-1.3,5.1-3.6,6.3-6.4c2.2,3.1,5.7,5.1,9.8,5.1c0.9,0,1.8-0.1,2.7-0.3c0.3,0.9,0.4,1.8,0.4,2.7C21.6,17.3,17.3,21.6,12,21.6z"/>
</svg>
