<?xml version="1.0" standalone="no"?>
<!DOCTYPE svg PUBLIC "-//W3C//DTD SVG 20010904//EN"
 "http://www.w3.org/TR/2001/REC-SVG-20010904/DTD/svg10.dtd">
<svg version="1.0" xmlns="http://www.w3.org/2000/svg"
 width="700.000000pt" height="700.000000pt" viewBox="0 0 700.000000 700.000000"
 preserveAspectRatio="xMidYMid meet">
<metadata>
Created by potrace 1.14, written by Peter Selinger 2001-2017
</metadata>
<g transform="translate(0.000000,700.000000) scale(0.100000,-0.100000)"
fill="#000000" stroke="none">
<path d="M3278 6996 c-1 -2 -42 -6 -89 -10 -47 -4 -95 -8 -105 -10 -10 -2 -41
-7 -69 -10 -50 -7 -138 -22 -185 -31 -14 -3 -47 -10 -75 -15 -125 -25 -448
-124 -548 -169 -23 -10 -62 -27 -87 -37 -375 -157 -764 -421 -1076 -729 -294
-291 -497 -573 -679 -940 -159 -323 -270 -663 -319 -980 -2 -16 -8 -50 -12
-75 -20 -131 -29 -273 -29 -495 1 -191 7 -339 19 -402 2 -10 7 -43 10 -74 4
-31 9 -67 11 -80 3 -13 7 -38 9 -54 11 -81 73 -324 116 -454 125 -384 289
-699 536 -1032 43 -57 80 -106 83 -109 3 -3 35 -39 70 -80 123 -143 352 -360
511 -483 288 -223 632 -408 1006 -540 162 -58 480 -134 634 -153 30 -3 66 -8
80 -10 134 -19 546 -26 715 -11 816 73 1578 429 2155 1007 123 122 169 172
240 260 25 30 47 57 50 60 21 21 220 305 220 314 0 3 18 34 41 68 59 92 210
404 263 545 87 232 172 567 192 753 3 36 8 68 10 71 24 42 23 790 -1 829 -2 3
-6 30 -9 60 -3 30 -8 64 -10 75 -2 11 -11 61 -20 110 -56 300 -173 636 -325
930 -277 534 -663 968 -1161 1306 -109 74 -108 73 -220 137 -337 194 -798 362
-1120 408 -19 3 -46 7 -60 10 -14 2 -36 6 -50 9 -13 3 -52 7 -86 11 -33 3 -74
8 -90 10 -33 5 -540 14 -546 10z m-646 -1424 c172 -235 424 -491 668 -679 354
-272 740 -467 1162 -589 142 -40 361 -86 478 -100 30 -3 64 -8 75 -10 94 -18
528 -25 695 -12 86 8 225 24 270 33 14 2 41 7 60 9 55 9 92 16 130 26 19 5 37
6 41 2 16 -19 62 -207 84 -342 37 -223 41 -577 9 -765 -2 -16 -9 -57 -15 -90
-6 -33 -13 -71 -15 -85 -3 -14 -7 -33 -10 -42 -3 -10 -8 -30 -10 -45 -8 -42
-69 -254 -83 -288 -5 -11 -26 -63 -46 -115 -87 -221 -213 -442 -375 -658 -108
-144 -371 -414 -494 -507 -130 -99 -147 -110 -264 -184 -243 -154 -518 -272
-806 -346 -100 -26 -107 -27 -186 -40 -25 -4 -53 -9 -64 -11 -10 -2 -44 -6
-75 -10 -31 -3 -65 -8 -76 -11 -37 -9 -470 -11 -540 -2 -38 5 -92 11 -120 14
-264 31 -608 137 -870 268 -615 307 -1090 820 -1350 1455 -46 114 -116 332
-134 422 -11 55 -17 83 -25 119 -3 11 -7 41 -11 68 -4 26 -9 59 -11 73 -19
110 -27 499 -12 585 12 74 16 78 127 133 715 353 1324 965 1664 1673 34 71 64
129 67 129 3 -1 30 -35 62 -78z"/>
<path d="M2351 3574 c-123 -32 -241 -129 -293 -240 -33 -71 -38 -90 -43 -165
-12 -206 153 -411 363 -449 300 -54 574 243 493 534 -42 150 -154 267 -303
315 -56 18 -157 21 -217 5z"/>
<path d="M4451 3573 c-159 -40 -295 -182 -330 -340 -57 -266 184 -538 460
-518 146 11 291 110 358 246 33 68 39 87 46 160 12 107 -42 247 -129 333 -112
111 -263 156 -405 119z"/>
</g>
</svg>
